<?xml version="1.0" standalone="no"?>
<!DOCTYPE svg PUBLIC "-//W3C//DTD SVG 20010904//EN"
 "http://www.w3.org/TR/2001/REC-SVG-20010904/DTD/svg10.dtd">
<svg version="1.0" xmlns="http://www.w3.org/2000/svg"
 width="65000.000000pt" height="40000.000000pt" viewBox="0 0 65000.000000 40000.000000"
 preserveAspectRatio="xMidYMid meet">
<metadata>
Created by potrace 1.16, written by Peter Selinger 2001-2019
</metadata>
<g transform="translate(0.000000,40000.000000) scale(0.812500,-2.351558)"
fill="#000000" stroke="none">
<path d="M13782 12503 c267 -2 708 -2 980 0 271 1 52 2 -487 2 -539 0 -761 -1
-493 -2z"/>
<path d="M18127 12503 c-5 -7 669 -7 1588 0 193 1 -85 3 -617 5 -532 1 -969
-1 -971 -5z"/>
<path d="M22043 12503 c269 -2 705 -2 970 0 265 1 46 2 -488 2 -533 0 -750 -1
-482 -2z"/>
<path d="M30723 12503 c269 -2 705 -2 970 0 265 1 46 2 -488 2 -533 0 -750 -1
-482 -2z"/>
<path d="M35743 12503 c274 -2 720 -2 990 0 271 1 47 2 -498 2 -544 0 -766 -1
-492 -2z"/>
<path d="M39167 12503 c248 -2 658 -2 910 0 252 1 49 2 -452 2 -500 0 -707 -1
-458 -2z"/>
<path d="M46898 12503 c512 -2 1352 -2 1865 0 512 1 93 2 -933 2 -1026 0
-1445 -1 -932 -2z"/>
<path d="M51103 12503 c269 -2 705 -2 970 0 265 1 46 2 -488 2 -533 0 -750 -1
-482 -2z"/>
</g>
</svg>
